<svg width="16" height="17" viewBox="0 0 16 17" fill="none" xmlns="http://www.w3.org/2000/svg">
<g clip-path="url(#clip0)">
<path d="M15.1507 5.40775L8.27572 0.0952515C8.11134 -0.0317505 7.88866 -0.0317505 7.72428 0.0952515L0.849281 5.40775C0.728 5.50145 0.65625 5.6512 0.65625 5.81054V16.5019C0.65625 16.777 0.866125 17 1.125 17H14.875C15.1339 17 15.3438 16.777 15.3438 16.5019V5.81054C15.3438 5.6512 15.272 5.50145 15.1507 5.40775ZM7.53125 11.5249C5.93931 11.7189 4.61847 10.2645 4.84741 8.59386C6.03744 8.41028 7.18953 9.17618 7.53125 10.4147V11.5249ZM14.4062 16.0039H8.46875V12.5251C10.8153 12.7299 12.5963 10.4074 12.0016 8.04398C11.9583 7.87172 11.8316 7.73725 11.6694 7.69136C10.2998 7.30375 8.81097 7.86883 8 9.15642C7.18978 7.87006 5.70141 7.30339 4.33059 7.69136C4.16844 7.73725 4.04172 7.87176 3.99837 8.04398C3.40312 10.4095 5.18678 12.7298 7.53125 12.5251V16.0039H1.59375V6.06415L8 1.11386L14.4062 6.06415V16.0039ZM8.46875 11.5249V10.4147C8.80784 9.18574 9.95316 8.40882 11.1526 8.59386C11.3816 10.2647 10.0603 11.7191 8.46875 11.5249Z" fill="#D16B49"/>
</g>
<defs>
<clipPath id="clip0">
<rect width="16" height="17" fill="white"/>
</clipPath>
</defs>
</svg>
