<svg width="30" height="30" viewBox="0 0 30 30" fill="none" xmlns="http://www.w3.org/2000/svg">
<g clip-path="url(#clip0)">
<path d="M19.7803 17.1474H19.2356V17.6921H19.7803V17.1474Z" fill="#14584E"/>
<path d="M18.9365 17.9905H18.3918V18.5352H18.9365V17.9905Z" fill="#14584E"/>
<path d="M18.9365 17.1474H18.3918V17.6921H18.9365V17.1474Z" fill="#14584E"/>
<path d="M19.7803 17.9905H19.2356V18.5352H19.7803V17.9905Z" fill="#14584E"/>
<path d="M5.59473 8.62384C5.59473 8.62384 6.00803 11.9428 7.48495 13.3775C8.96188 14.8121 10.9445 13.8271 10.9445 13.8271C10.9445 13.8271 11.8781 11.8187 10.4012 10.3814C8.92425 8.94405 5.59473 8.62384 5.59473 8.62384Z" fill="#14584E"/>
<path d="M11.8787 13.0672C11.8787 13.0672 12.9938 13.6231 13.8251 12.815C14.6563 12.0069 14.888 10.1391 14.888 10.1391C14.888 10.1391 13.0156 10.32 12.1844 11.1294C11.3532 11.9389 11.8787 13.0672 11.8787 13.0672Z" fill="#14584E"/>
<path d="M15.0003 0C6.71582 0 0 6.71582 0 15.0003C0 23.2848 6.71582 30.0007 15.0003 30.0007C23.2849 30.0007 30.0007 23.2848 30.0007 15.0003C30.0007 6.71582 23.2849 0 15.0003 0ZM22.0885 25.6485C21.4149 26.0915 20.7008 26.47 19.956 26.7788V20.7324H18.2163V27.3565C17.4821 27.5423 16.7329 27.6627 15.9775 27.7163V18.5715L19.1327 15.7371L22.0885 18.9835V25.6485ZM22.6827 25.2312V19.2258H23.8474L19.066 13.911H11.8927L6.85315 18.9505H7.4117V25.2193C5.80666 24.0279 4.50311 22.4769 3.6056 20.6909C2.70808 18.9048 2.24156 16.9332 2.24345 14.9343C2.24345 7.85933 7.98015 2.12593 15.0571 2.12593C22.1341 2.12593 27.8701 7.85933 27.8701 14.9343C27.8723 16.937 27.4044 18.9123 26.504 20.7011C25.6036 22.49 24.2959 24.0425 22.686 25.2338L22.6827 25.2312Z" fill="#D16B49"/>
</g>
<defs>
<clipPath id="clip0">
<rect width="30" height="30" fill="white"/>
</clipPath>
</defs>
</svg>
