<svg width="29" height="30" viewBox="0 0 29 30" fill="none" xmlns="http://www.w3.org/2000/svg">
<path d="M28.5 1.5V4.5C28.5 7.28478 27.3938 9.95549 25.4246 11.9246C23.4555 13.8938 20.7848 15 18 15H16.5V16.5H24V27C24 27.7957 23.6839 28.5587 23.1213 29.1213C22.5587 29.6839 21.7956 30 21 30H9C8.20435 30 7.44129 29.6839 6.87868 29.1213C6.31607 28.5587 6 27.7957 6 27V16.5H13.5V12C13.5 9.21523 14.6062 6.54451 16.5754 4.57538C18.5445 2.60625 21.2152 1.5 24 1.5H28.5ZM5.25 3.68888e-06C7.04996 -0.00145478 8.82393 0.429579 10.4225 1.25681C12.0211 2.08405 13.3976 3.28327 14.436 4.7535C12.851 6.83637 11.9951 9.38268 12 12V13.5H11.25C8.26631 13.5 5.40483 12.3147 3.29505 10.205C1.18526 8.09517 0 5.23369 0 2.25V3.68888e-06H5.25Z" fill="#14584E"/>
</svg>
