<svg width="24" height="22" viewBox="0 0 24 22" fill="none" xmlns="http://www.w3.org/2000/svg">
<path d="M22.5419 10.6959L12.0733 0.232388C11.9235 0.0835397 11.7209 0 11.5097 0C11.2985 0 11.0958 0.0835397 10.946 0.232388L0.477449 10.6959C0.323915 10.8488 0.202574 11.0309 0.120589 11.2315C0.0386044 11.4321 -0.00236292 11.6471 0.000105243 11.8638C0.0102615 12.7576 0.754207 13.4711 1.64796 13.4711H2.72706V21.7408H20.2923V13.4711H21.3942C21.8284 13.4711 22.2372 13.3009 22.5444 12.9937C22.6957 12.8429 22.8156 12.6636 22.8971 12.4662C22.9786 12.2688 23.0201 12.0571 23.0192 11.8435C23.0192 11.4119 22.8491 11.0031 22.5419 10.6959ZM12.9316 19.9127H10.0878V14.733H12.9316V19.9127ZM18.4642 11.6429V19.9127H14.5566V14.1236C14.5566 13.5625 14.1021 13.108 13.5409 13.108H9.47843C8.91729 13.108 8.4628 13.5625 8.4628 14.1236V19.9127H4.55518V11.6429H2.11768L11.5122 2.25602L20.9042 11.6429H18.4642Z" fill="#D16B49"/>
</svg>
