<svg width="23" height="25" viewBox="0 0 23 25" fill="none" xmlns="http://www.w3.org/2000/svg">
<path d="M16.879 13.9167C16.2807 13.9167 15.7956 14.4017 15.7956 15C15.7956 15.5983 16.2807 16.0833 16.879 16.0833V13.9167ZM17.2603 15L17.2606 13.9167H17.2603V15ZM20.4843 17.847L19.4093 17.9813L19.4094 17.9815L20.4843 17.847ZM20.9079 21.2313L21.9829 21.097L21.9828 21.0968L20.9079 21.2313ZM18.7575 23.6667L18.7577 22.5833H18.7575V23.6667ZM4.16714 23.6667L4.16714 22.5833L4.1669 22.5833L4.16714 23.6667ZM2.01672 21.2313L3.09169 21.3657L3.09171 21.3655L2.01672 21.2313ZM2.43922 17.847L1.36425 17.7127L1.36423 17.7128L2.43922 17.847ZM5.66539 15L5.66497 16.0833H5.66539V15ZM6.04564 16.0833C6.64395 16.0833 7.12897 15.5983 7.12897 15C7.12897 14.4017 6.64395 13.9167 6.04564 13.9167V16.0833ZM15.7956 7.41667C15.7956 9.8099 13.8555 11.75 11.4623 11.75V13.9167C15.0522 13.9167 17.9623 11.0065 17.9623 7.41667H15.7956ZM11.4623 11.75C9.06907 11.75 7.12897 9.8099 7.12897 7.41667H4.96231C4.96231 11.0065 7.87245 13.9167 11.4623 13.9167V11.75ZM7.12897 7.41667C7.12897 5.02343 9.06907 3.08333 11.4623 3.08333V0.916667C7.87245 0.916667 4.96231 3.82682 4.96231 7.41667H7.12897ZM11.4623 3.08333C13.8555 3.08333 15.7956 5.02343 15.7956 7.41667H17.9623C17.9623 3.82682 15.0522 0.916667 11.4623 0.916667V3.08333ZM16.879 16.0833H17.2603V13.9167H16.879V16.0833ZM17.26 16.0833C17.788 16.0835 18.2978 16.2764 18.6936 16.6259L20.1277 15.0019C19.3362 14.3029 18.3166 13.917 17.2606 13.9167L17.26 16.0833ZM18.6936 16.6259C19.0893 16.9754 19.3439 17.4574 19.4093 17.9813L21.5593 17.7127C21.4283 16.6648 20.9193 15.7008 20.1277 15.0019L18.6936 16.6259ZM19.4094 17.9815L19.8329 21.3659L21.9828 21.0968L21.5593 17.7125L19.4094 17.9815ZM19.8329 21.3657C19.852 21.5181 19.8384 21.6729 19.793 21.8196L21.8633 22.4589C21.9992 22.0186 22.04 21.5543 21.9829 21.097L19.8329 21.3657ZM19.793 21.8196C19.7477 21.9664 19.6717 22.1019 19.57 22.2171L21.1941 23.6512C21.4992 23.3057 21.7273 22.8993 21.8633 22.4589L19.793 21.8196ZM19.57 22.2171C19.4683 22.3322 19.3433 22.4244 19.2033 22.4876L20.0939 24.4627C20.514 24.2733 20.8891 23.9966 21.1941 23.6512L19.57 22.2171ZM19.2033 22.4876C19.0632 22.5507 18.9113 22.5834 18.7577 22.5833L18.7572 24.75C19.2181 24.7501 19.6737 24.6522 20.0939 24.4627L19.2033 22.4876ZM18.7575 22.5833H4.16714V24.75H18.7575V22.5833ZM4.1669 22.5833C4.01328 22.5834 3.8614 22.5507 3.72135 22.4876L2.83072 24.4627C3.25086 24.6522 3.70649 24.7501 4.16737 24.75L4.1669 22.5833ZM3.72135 22.4876C3.5813 22.4244 3.45629 22.3322 3.35461 22.2171L1.73048 23.6512C2.03554 23.9966 2.41058 24.2733 2.83072 24.4627L3.72135 22.4876ZM3.35461 22.2171C3.25292 22.1019 3.17689 21.9664 3.13156 21.8196L1.06136 22.4589C1.19734 22.8993 1.42543 23.3057 1.73048 23.6512L3.35461 22.2171ZM3.13156 21.8196C3.08624 21.6729 3.07264 21.5181 3.09169 21.3657L0.94175 21.097C0.8846 21.5543 0.925372 22.0186 1.06136 22.4589L3.13156 21.8196ZM3.09171 21.3655L3.51421 17.9812L1.36423 17.7128L0.941733 21.0971L3.09171 21.3655ZM3.51419 17.9813C3.5797 17.4572 3.83444 16.975 4.23052 16.6254L2.7969 15.0009C2.00474 15.7 1.49526 16.6643 1.36425 17.7127L3.51419 17.9813ZM4.23052 16.6254C4.6266 16.2759 5.13672 16.0831 5.66497 16.0833L5.66581 13.9167C4.60931 13.9163 3.58905 14.3018 2.7969 15.0009L4.23052 16.6254ZM5.66539 16.0833H6.04564V13.9167H5.66539V16.0833Z" fill="#D16B49"/>
</svg>
