<svg width="25" height="25" viewBox="0 0 25 25" fill="none" xmlns="http://www.w3.org/2000/svg">
<path d="M11.2671 6.59442L7.60217 2.36401C7.17967 1.87651 6.40509 1.87867 5.91434 2.37051L2.9005 5.38976C2.0035 6.28784 1.74675 7.62142 2.26567 8.69067C5.36576 15.1094 10.5424 20.2933 16.9568 23.4023C18.0249 23.9213 19.3574 23.6645 20.2544 22.7664L23.2964 19.719C23.7893 19.2261 23.7904 18.4472 23.2986 18.0247L19.0519 14.3793C18.6078 13.9979 17.9177 14.0478 17.4724 14.4941L15.9948 15.9739C15.9191 16.0532 15.8195 16.1055 15.7113 16.1227C15.6031 16.1399 15.4922 16.1211 15.3957 16.0693C12.9803 14.6784 10.9767 12.6722 9.589 10.255C9.53703 10.1583 9.51821 10.0473 9.53543 9.93884C9.55265 9.83043 9.60496 9.73066 9.68434 9.65484L11.1577 8.18042C11.604 7.73192 11.6528 7.03859 11.2671 6.59334V6.59442Z" stroke="#D16B49" stroke-width="2.16667" stroke-linecap="round" stroke-linejoin="round"/>
</svg>
