<svg width="23" height="23" viewBox="0 0 23 23" fill="none" xmlns="http://www.w3.org/2000/svg">
<path d="M15.4375 1.96667e-07C14.2956 -0.00026167 13.1695 0.26696 12.1495 0.780251C11.1295 1.29354 10.2439 2.03863 9.56366 2.95581C8.88344 3.87298 8.42752 4.93675 8.23243 6.06185C8.03735 7.18695 8.10852 8.34211 8.44025 9.43475L0 17.875V22.75H4.875L13.3153 14.3097C14.321 14.615 15.3808 14.6999 16.4224 14.5586C17.464 14.4173 18.4628 14.0531 19.3509 13.4908C20.239 12.9285 20.9954 12.1814 21.5686 11.3003C22.1418 10.4193 22.5184 9.42501 22.6726 8.38527C22.8268 7.34553 22.755 6.28477 22.4622 5.27527C22.1694 4.26578 21.6623 3.33128 20.9757 2.53546C20.289 1.73963 19.4389 1.1012 18.4831 0.663659C17.5274 0.226118 16.4886 -0.000243566 15.4375 1.96667e-07ZM15.4375 13C14.8781 12.9997 14.3218 12.917 13.7865 12.7546L12.8546 12.4719L9.58181 15.7446L8.46137 14.625L7.3125 15.7739L8.43294 16.8943L7.14431 18.1829L6.02387 17.0625L4.875 18.2114L5.99544 19.3318L4.20225 21.125H1.625V18.5477L10.2781 9.89544L9.99537 8.9635C9.6481 7.81868 9.67066 6.59351 10.0598 5.46225C10.449 4.33099 11.185 3.35126 12.1632 2.66242C13.1413 1.97358 14.3117 1.61071 15.5079 1.62543C16.7042 1.64015 17.8653 2.0317 18.8262 2.7444C19.7871 3.45709 20.4987 4.45463 20.86 5.59512C21.2212 6.73561 21.2136 7.96097 20.8383 9.0969C20.463 10.2328 19.739 11.2215 18.7694 11.9222C17.7997 12.623 16.6338 13.0001 15.4375 13Z" fill="#D16B49"/>
<path d="M16.25 8.125C17.1475 8.125 17.875 7.39746 17.875 6.5C17.875 5.60254 17.1475 4.875 16.25 4.875C15.3525 4.875 14.625 5.60254 14.625 6.5C14.625 7.39746 15.3525 8.125 16.25 8.125Z" fill="#D16B49"/>
</svg>
