<svg width="33" height="33" viewBox="0 0 33 33" fill="none" xmlns="http://www.w3.org/2000/svg">
<path d="M16.5 0C7.38817 0 0 7.38817 0 16.5C0 25.6118 7.38817 33 16.5 33C25.6118 33 33 25.6118 33 16.5C33 7.38817 25.6118 0 16.5 0ZM23.5714 17.3839C23.5714 17.546 23.4388 17.6786 23.2768 17.6786H17.6786V23.2768C17.6786 23.4388 17.546 23.5714 17.3839 23.5714H15.6161C15.454 23.5714 15.3214 23.4388 15.3214 23.2768V17.6786H9.72321C9.56116 17.6786 9.42857 17.546 9.42857 17.3839V15.6161C9.42857 15.454 9.56116 15.3214 9.72321 15.3214H15.3214V9.72321C15.3214 9.56116 15.454 9.42857 15.6161 9.42857H17.3839C17.546 9.42857 17.6786 9.56116 17.6786 9.72321V15.3214H23.2768C23.4388 15.3214 23.5714 15.454 23.5714 15.6161V17.3839Z" fill="#E85E45"/>
</svg>
