<svg width="14" height="26" viewBox="0 0 14 26" fill="none" xmlns="http://www.w3.org/2000/svg">
<path d="M2.3125 5.6875C2.3125 4.39457 2.82612 3.15459 3.74036 2.24035C4.6546 1.32611 5.89457 0.8125 7.1875 0.8125C8.48043 0.8125 9.72041 1.32611 10.6347 2.24035C11.5489 3.15459 12.0625 4.39457 12.0625 5.6875V14.3878C12.8899 15.3259 13.429 16.4829 13.6151 17.7199C13.8013 18.9569 13.6265 20.2213 13.1118 21.3614C12.5972 22.5016 11.7645 23.469 10.7136 24.1476C9.66275 24.8261 8.43841 25.1871 7.1875 25.1871C5.9366 25.1871 4.71226 24.8261 3.6614 24.1476C2.61055 23.469 1.77783 22.5016 1.26316 21.3614C0.748487 20.2213 0.573732 18.9569 0.759863 17.7199C0.945995 16.4829 1.48511 15.3259 2.3125 14.3878V5.6875ZM7.1875 3.25C6.54104 3.25 5.92105 3.50681 5.46393 3.96393C5.00681 4.42105 4.75 5.04103 4.75 5.6875V15.3969L4.37625 15.7544C3.79116 16.3155 3.38735 17.0389 3.21677 17.8315C3.04618 18.6241 3.11663 19.4495 3.41904 20.2017C3.72145 20.9539 4.242 21.5984 4.91372 22.0523C5.58544 22.5062 6.37761 22.7488 7.18832 22.7488C7.99902 22.7488 8.79119 22.5062 9.46291 22.0523C10.1346 21.5984 10.6552 20.9539 10.9576 20.2017C11.26 19.4495 11.3305 18.6241 11.1599 17.8315C10.9893 17.0389 10.5855 16.3155 10.0004 15.7544L9.625 15.3985V5.6875C9.625 5.04103 9.3682 4.42105 8.91108 3.96393C8.45396 3.50681 7.83397 3.25 7.1875 3.25V3.25ZM8 9.75C8 9.53451 7.9144 9.32785 7.76203 9.17548C7.60965 9.0231 7.40299 8.9375 7.1875 8.9375C6.97202 8.9375 6.76535 9.0231 6.61298 9.17548C6.46061 9.32785 6.375 9.53451 6.375 9.75V16.3881C5.83289 16.5798 5.37599 16.9569 5.08505 17.4529C4.79412 17.9488 4.68787 18.5317 4.78511 19.0984C4.88234 19.6651 5.17679 20.1792 5.61641 20.5498C6.05602 20.9205 6.61251 21.1237 7.1875 21.1237C7.7625 21.1237 8.31898 20.9205 8.7586 20.5498C9.19822 20.1792 9.49267 19.6651 9.5899 19.0984C9.68713 18.5317 9.58089 17.9488 9.28995 17.4529C8.99902 16.9569 8.54212 16.5798 8 16.3881V9.75Z" fill="#E85E45"/>
</svg>
